<?xml version="1.0" encoding="utf-8"?>
<!-- Generator: Adobe Illustrator 24.0.1, SVG Export Plug-In . SVG Version: 6.00 Build 0)  -->
<svg version="1.1" id="Layer_1" xmlns="http://www.w3.org/2000/svg" xmlns:xlink="http://www.w3.org/1999/xlink" x="0px" y="0px"
	 viewBox="0 0 149 35" style="enable-background:new 0 0 149 35;" xml:space="preserve">
<style type="text/css">
	.st0{fill:#09BD1B;}
</style>
<path class="st0" d="M5.6,22.1h3.7v-0.9h0.9v-0.9H12v1.8h-0.9V23h-0.9v0.9H4.7V23H3.8v-0.9H2.9v-9.2h0.9V12h0.9v-0.9h5.5V12h0.9v0.9
	H12v1.8h-1.8v-0.9H9.3v-0.9H5.6v0.9H4.7v7.3h0.9V22.1z M20.3,12.9h-3.7v0.9h-0.9v7.3h0.9v0.9h3.7v-0.9h0.9v-7.3h-0.9V12.9z M15.7,12
	v-0.9h5.5V12h0.9v0.9H23v9.2h-0.9V23h-0.9v0.9h-5.5V23h-0.9v-0.9h-0.9v-9.2h0.9V12H15.7z M26.7,16.6v7.3h-1.8V11.1h1.8v2.7h0.9v0.9
	h0.9v0.9h0.9v0.9h0.9v0.9h0.9v0.9h0.9v-7.3H34v12.8h-1.8v-2.7h-0.9v-0.9h-0.9v-0.9h-0.9v-0.9h-0.9v-0.9h-0.9v-0.9H26.7z M39.5,12.9
	h-3.7v-1.8H45v1.8h-3.7v11h-1.8V12.9z M48.7,23.9v-1.8h1.8v-9.2h-1.8v-1.8h5.5v1.8h-1.8v9.2h1.8v1.8H48.7z M59.7,16.6v7.3h-1.8V11.1
	h1.8v2.7h0.9v0.9h0.9v0.9h0.9v0.9h0.9v0.9h0.9v0.9h0.9v-7.3H67v12.8h-1.8v-2.7h-0.9v-0.9h-0.9v-0.9h-0.9v-0.9h-0.9v-0.9h-0.9v-0.9
	H59.7z M69.8,22.1h-0.9v-11h1.8v10.1h0.9v0.9h3.7v-0.9h0.9V11.1H78v11h-0.9V23h-0.9v0.9h-5.5V23h-0.9V22.1z M89,11.1v1.8h-7.3v3.7
	h5.5v1.8h-5.5v3.7H89v1.8h-9.2V11.1H89z"/>
<g>
	<path class="st0" d="M136.4,23.4h-2v-1.7V20h-2h-2h-2h-2h-2h-2h-2h-2v-1.7v-1.7V15h2h2h2h2h2h2h2h2v-1.7v-1.7h2V9.9h-2h-2v1.7v1.7
		h-2h-2h-2h-2h-2h-2h-2h-2V15v1.7v1.7V20v1.7h2h2h2h2h2h2h2h2v1.7v1.7h2h2V23.4z"/>
	<path class="st0" d="M138.4,23.4v-1.7h-2v1.7H138.4z"/>
	<path class="st0" d="M140.4,21.7V20h-2v1.7H140.4z"/>
	<path class="st0" d="M142.5,20v-1.7h-2V20H142.5z"/>
	<path class="st0" d="M144.5,18.3v-1.7h-2v1.7H144.5z"/>
	<path class="st0" d="M142.5,16.7V15h-2v1.7H142.5z"/>
	<path class="st0" d="M140.4,15v-1.7h-2V15H140.4z"/>
	<path class="st0" d="M138.4,13.3v-1.7h-2v1.7H138.4z"/>
</g>
</svg>
