<svg width="125" height="14" viewBox="0 0 125 14" fill="none" xmlns="http://www.w3.org/2000/svg">
<path d="M8.00781 2.57422H8.88672V4.33203H7.12891V3.45312H6.25V2.57422H2.73438V3.45312H1.85547V5.21094H2.73438V6.08984H7.12891V6.96875H8.00781V7.84766H8.88672V11.3633H8.00781V12.2422H7.12891V13.1211H1.85547V12.2422H0.976562V11.3633H0.0976562V9.60547H1.85547V10.4844H2.73438V11.3633H6.25V10.4844H7.12891V8.72656H6.25V7.84766H1.85547V6.96875H0.976562V6.08984H0.0976562V2.57422H0.976562V1.69531H1.85547V0.816406H7.12891V1.69531H8.00781V2.57422ZM14.1602 2.57422H10.6445V0.816406H19.4336V2.57422H15.918V13.1211H14.1602V2.57422ZM22.9492 7.84766H28.2227V5.21094H27.3438V4.33203H26.4648V3.45312H24.707V4.33203H23.8281V5.21094H22.9492V7.84766ZM22.9492 13.1211H21.1914V4.33203H22.0703V3.45312H22.9492V2.57422H23.8281V1.69531H24.707V0.816406H26.4648V1.69531H27.3438V2.57422H28.2227V3.45312H29.1016V4.33203H29.9805V13.1211H28.2227V9.60547H22.9492V13.1211ZM33.4961 2.57422V6.08984H37.8906V5.21094H38.7695V3.45312H37.8906V2.57422H33.4961ZM34.375 7.84766H33.4961V13.1211H31.7383V0.816406H38.7695V1.69531H39.6484V2.57422H40.5273V6.08984H39.6484V6.96875H38.7695V7.84766H37.0117V8.72656H37.8906V9.60547H38.7695V10.4844H39.6484V11.3633H40.5273V13.1211H38.7695V12.2422H37.8906V11.3633H37.0117V10.4844H36.1328V9.60547H35.2539V8.72656H34.375V7.84766ZM45.8008 2.57422H42.2852V0.816406H51.0742V2.57422H47.5586V13.1211H45.8008V2.57422ZM65.1367 6.08984H69.5312V5.21094H70.4102V3.45312H69.5312V2.57422H65.1367V6.08984ZM63.3789 13.1211V0.816406H70.4102V1.69531H71.2891V2.57422H72.168V6.08984H71.2891V7.84766H72.168V11.3633H71.2891V12.2422H70.4102V13.1211H63.3789ZM65.1367 11.3633H69.5312V10.4844H70.4102V8.72656H69.5312V7.84766H65.1367V11.3633ZM75.6836 7.84766H80.957V5.21094H80.0781V4.33203H79.1992V3.45312H77.4414V4.33203H76.5625V5.21094H75.6836V7.84766ZM75.6836 13.1211H73.9258V4.33203H74.8047V3.45312H75.6836V2.57422H76.5625V1.69531H77.4414V0.816406H79.1992V1.69531H80.0781V2.57422H80.957V3.45312H81.8359V4.33203H82.7148V13.1211H80.957V9.60547H75.6836V13.1211ZM87.9883 2.57422H84.4727V0.816406H93.2617V2.57422H89.7461V13.1211H87.9883V2.57422ZM98.5352 2.57422H95.0195V0.816406H103.809V2.57422H100.293V13.1211H98.5352V2.57422ZM105.566 13.1211V0.816406H107.324V11.3633H114.355V13.1211H105.566ZM124.902 0.816406V2.57422H117.871V6.08984H123.145V7.84766H117.871V11.3633H124.902V13.1211H116.113V0.816406H124.902Z" fill="#09BD1B"/>
</svg>
