<?xml version="1.0" encoding="utf-8"?>
<!-- Generator: Adobe Illustrator 24.0.1, SVG Export Plug-In . SVG Version: 6.00 Build 0)  -->
<svg version="1.1" id="Layer_1" xmlns="http://www.w3.org/2000/svg" xmlns:xlink="http://www.w3.org/1999/xlink" x="0px" y="0px"
	 viewBox="0 0 192.7 35" style="enable-background:new 0 0 192.7 35;" xml:space="preserve">
<style type="text/css">
	.st0{fill:#09BD1B;}
	.st1{clip-path:url(#SVGID_2_);}
</style>
<g>
	<path class="st0" d="M10.7,13.1h0.9v1.8H9.8V14H8.9v-0.9H5.2V14H4.3v1.8h0.9v0.9h4.6v0.9h0.9v0.9h0.9v3.7h-0.9v0.9H9.8v0.9H4.3
		v-0.9H3.4v-0.9H2.5v-1.8h1.8v0.9h0.9v0.9h3.7v-0.9h0.9v-1.8H8.9v-0.9H4.3v-0.9H3.4v-0.9H2.5v-3.7h0.9v-0.9h0.9v-0.9h5.5v0.9h0.9
		V13.1z M13.5,11.3h1.8v10.1h1.8v-4.6H19v4.6h1.8V11.3h1.8v11h-0.9v0.9h-0.9v0.9H19v-0.9h-1.8v0.9h-1.8v-0.9h-0.9v-0.9h-0.9V11.3z
		 M26.3,24.1v-1.8h1.8v-9.2h-1.8v-1.8h5.5v1.8H30v9.2h1.8v1.8H26.3z M39.2,13.1h-3.7v-1.8h9.2v1.8H41v11h-1.8V13.1z M49.2,22.3h3.7
		v-0.9h0.9v-0.9h1.8v1.8h-0.9v0.9h-0.9v0.9h-5.5v-0.9h-0.9v-0.9h-0.9v-9.2h0.9v-0.9h0.9v-0.9h5.5v0.9h0.9v0.9h0.9v1.8h-1.8V14h-0.9
		v-0.9h-3.7V14h-0.9v7.3h0.9V22.3z M59.3,18.6v5.5h-1.8V11.3h1.8v5.5h5.5v-5.5h1.8v12.8h-1.8v-5.5H59.3z M85.9,13.1h-3.7V14h-0.9
		v7.3h0.9v0.9h3.7v-0.9h0.9V14h-0.9V13.1z M81.3,12.2v-0.9h5.5v0.9h0.9v0.9h0.9v9.2h-0.9v0.9h-0.9v0.9h-5.5v-0.9h-0.9v-0.9h-0.9
		v-9.2h0.9v-0.9H81.3z M92.3,16.8v7.3h-1.8V11.3h1.8V14h0.9v0.9h0.9v0.9h0.9v0.9H96v0.9h0.9v0.9h0.9v-7.3h1.8v12.8h-1.8v-2.7h-0.9
		v-0.9H96v-0.9h-0.9v-0.9h-0.9v-0.9h-0.9v-0.9H92.3z M116.1,13.1h-3.7v-1.8h9.2v1.8H118v11h-1.8V13.1z M124.4,20.4h-0.9v-9.2h1.8
		v8.2h0.9v0.9h0.9v0.9h1.8v-0.9h0.9v-0.9h0.9v-8.2h1.8v9.2h-0.9v0.9h-0.9v0.9h-0.9v0.9H129v0.9h-1.8v-0.9h-0.9v-0.9h-0.9v-0.9h-0.9
		V20.4z"/>
	<g>
		<defs>
			<rect id="SVGID_1_" x="161.9" y="2.3" width="28.2" height="28.2"/>
		</defs>
		<clipPath id="SVGID_2_">
			<use xlink:href="#SVGID_1_"  style="overflow:visible;"/>
		</clipPath>
		<g class="st1">
			<path class="st0" d="M163.2,23.8h25.5v1.3h1.3v-2.7h-2.7V7.7H186v14.8h-1.3v-1.3h-1.3v1.3h-8.1v-1.3H174v1.3h-1.3V7.7H186V6.4
				h-20.1v1.3h5.4v5.4h-5.4V7.7h-1.3v14.8h-2.7v2.7h1.3V23.8z M165.9,15.8h5.4v5.4h-5.4V15.8z"/>
			<path class="st0" d="M188.7,25.1h-25.5v1.3h25.5V25.1z"/>
			<path class="st0" d="M183.3,19.8h-2.7v1.3h2.7V19.8z"/>
			<path class="st0" d="M182,17.1h-1.3v1.3h1.3V17.1z"/>
			<path class="st0" d="M180.7,18.4H178v1.3h2.7V18.4z"/>
			<path class="st0" d="M178,19.8h-2.7v1.3h2.7V19.8z"/>
			<path class="st0" d="M178,17.1h-1.3v1.3h1.3V17.1z"/>
			<path class="st0" d="M182,14.4v2.7h1.3v-4H182v-1.3h-1.3v-1.3H178v1.3h-1.3v1.3h-1.3v4h1.3v-2.7H182z"/>
			<path class="st0" d="M169.9,18.4h-2.7v1.3h2.7V18.4z"/>
			<path class="st0" d="M169.9,10.4h-2.7v1.3h2.7V10.4z"/>
		</g>
	</g>
</g>
</svg>
