<svg width="50" height="56" viewBox="0 0 50 56" fill="none" xmlns="http://www.w3.org/2000/svg">
<g opacity="0.3">
<path d="M7.3317 55.786L0.882812 49.366V13.1309L7.3317 6.71094H43.5379L49.9868 13.1309V49.366L43.5379 55.786H7.3317Z" fill="black"/>
<path d="M7.3317 49.1039L0.882812 42.6551V6.44885L7.3317 0H43.5379L49.9868 6.44885V42.6551L43.5379 49.1039H7.3317Z" fill="black"/>
</g>
<g opacity="0.8">
<path d="M7.3317 52.4305L0.882812 46.0105V9.7754L7.3317 3.35547H43.5379L49.9868 9.7754V46.0105L43.5379 52.4305H7.3317Z" fill="black"/>
<path d="M7.3317 49.1039L0.882812 42.6551V6.44885L7.3317 0H43.5379L49.9868 6.44885V42.6551L43.5379 49.1039H7.3317Z" fill="black"/>
</g>
<path d="M43.3259 51.966H7.4956C5.09535 49.5658 3.73619 48.2066 1.33594 45.8064V9.9761C3.73619 7.57585 5.09535 6.21666 7.4956 3.81641H43.3259C45.7261 6.21666 47.0853 7.57585 49.4856 9.9761V45.8064C47.0853 48.2066 45.7261 49.5658 43.3259 51.966Z" fill="#404043"/>
<path d="M43.3259 48.6106H7.4956C5.09535 46.2103 3.73619 44.8511 1.33594 42.4509V6.62063C3.73619 4.22038 5.09535 2.86119 7.4956 0.460938H43.3259C45.7261 2.86119 47.0853 4.22038 49.4856 6.62063V42.4509C47.0853 44.8511 45.7261 46.2103 43.3259 48.6106Z" fill="#404043"/>
<path d="M43.3259 48.6145H7.4956C5.09535 46.2142 3.73619 44.855 1.33594 42.4548V6.62454C3.73619 4.22429 5.09535 2.8651 7.4956 0.464844H43.3259C45.7261 2.8651 47.0853 4.22429 49.4856 6.62454V42.4548C47.0853 44.855 45.7261 46.2142 43.3259 48.6145Z" fill="#212121"/>
<g opacity="0.2">
<path d="M42.6029 2.22731L44.338 3.96243L47.7504 7.37485V41.7592L44.338 45.1716L42.6029 46.9067H8.21856L5.26887 43.957L3.09997 41.7881V7.40376L5.26887 5.23486L8.21856 2.28517H42.6029M43.3259 0.492188H7.4956C5.09535 2.89244 3.73619 4.25163 1.33594 6.65188V42.4822C3.73619 44.8824 5.09535 46.2416 7.4956 48.6418H43.3259C45.7261 46.2416 47.0853 44.8824 49.4856 42.4822V6.65188C47.0853 4.25163 45.7261 2.89244 43.3259 0.492188Z" fill="black"/>
</g>
<path d="M42.8343 1.7318L44.714 3.61151L48.271 7.16849V41.9577L44.714 45.5147L42.8343 47.3944H8.04506L5.3267 44.6761L2.60833 41.9577V7.16849L5.3267 4.45016L8.04506 1.7318H42.8343ZM43.3259 0.488281H7.4956C5.09535 2.88853 3.73619 4.24773 1.33594 6.64798V42.4782C3.73619 44.8785 5.09535 46.2377 7.4956 48.6379H43.3259C45.7261 46.2377 47.0853 44.8785 49.4856 42.4782V6.64798C47.0853 4.24773 45.7261 2.88853 43.3259 0.488281Z" fill="#212121"/>
<path d="M36.8395 19.3554V17.0091H34.4932V15.8359H15.7226V17.0091H13.3763V19.3554H12.2031V31.087H13.3763V33.4334H15.7226V34.6065H34.4932V33.4334H36.8395V31.087H38.0127V19.3554H36.8395ZM25.1079 28.7407H22.7616V21.7017H25.1079V22.8749H27.4542V24.0481H29.8005V26.3944H27.4542V27.5675H25.1079V28.7407Z" fill="white"/>
</svg>
